PathFileType	4	(X/Y/Z)	C:\Users\wzy\Desktop\s001_20220513_walk_1_markers.trc
DataRate	CameraRate	NumFrames	NumMarkers	Units	OrigDataRate	OrigDataStartFrame	OrigNumFrames
250.000000	250.000000	4	99	mm	250.000000	943	1078
Frame#	Time	QTMMod_head_top			QTMMod_head_l_ant			QTMMod_head_r_ant			QTMMod_head_r_post			QTMMod_head_l_post			QTMMod_trunk_l_acro			QTMMod_trunk_r_acro			QTMMod_trunk_manu			QTMMod_trunk_xyph			QTMMod_trunk_abdl			QTMMod_trunk_c7			QTMMod_trunk_t8			QTMMod_trunk_t12			QTMMod_l_sho_ant			QTMMod_l_sho_post			QTMMod_l_bicep			QTMMod_l_tricep			QTMMod_l_elb_lat			QTMMod_l_elb_med			QTMMod_l_farm_ant			QTMMod_l_farm_post			QTMMod_l_wri_lat			QTMMod_l_wri_med			QTMMod_l_hand			QTMMod_l_thmb			QTMMod_r_sho_ant			QTMMod_r_sho_post			QTMMod_r_bicep			QTMMod_r_tricep			QTMMod_r_elb_lat			QTMMod_r_elb_med			QTMMod_r_farm_ant			QTMMod_r_farm_post			QTMMod_r_wri_lat			QTMMod_r_wri_med			QTMMod_r_hand			QTMMod_r_thmb			QTMMod_pelvis_l_asis			QTMMod_pelvis_r_asis			QTMMod_pelvis_r			QTMMod_pelvis_r_ilcr			QTMMod_pelvis_r_psis			QTMMod_pelvis_sac			QTMMod_pelvis_l_psis			QTMMod_pelvis_l_ilcr			QTMMod_pelvis_l			QTMMod_l_hip_grtr			QTMMod_l_thigh_antprox			QTMMod_l_thigh_postprox			QTMMod_l_thigh_postdist			QTMMod_l_thigh_antdist			QTMMod_l_thigh_ant			QTMMod_l_thigh_med			QTMMod_l_thigh_pos			QTMMod_l_knee_lat			QTMMod_l_knee_med			QTMMod_l_shank_antprox			QTMMod_l_shank_postprox			QTMMod_l_shank_postdist			QTMMod_l_shank_antdist			QTMMod_l_shank_med			QTMMod_l_ank_lat			QTMMod_l_ank_med			QTMMod_l_foot_heel			QTMMod_l_foot_lat			QTMMod_l_foot_m5			QTMMod_l_foot_m2			QTMMod_l_foot_toe			QTMMod_l_foot_m1			QTMMod_l_foot_med			QTMMod_l_foot_navi			QTMMod_r_hip_grtr			QTMMod_r_thigh_antprox			QTMMod_r_thigh_postprox			QTMMod_r_thigh_postdist			QTMMod_r_thigh_antdist			QTMMod_r_thigh_ant			QTMMod_r_thigh_med			QTMMod_r_thigh_pos			QTMMod_r_knee_lat			QTMMod_r_knee_med			QTMMod_r_shank_antprox			QTMMod_r_shank_postprox			QTMMod_r_shank_postdist			QTMMod_r_shank_antdist			QTMMod_r_shank_med			QTMMod_r_ank_lat			QTMMod_r_ank_med			QTMMod_r_foot_heel			QTMMod_r_foot_lat			QTMMod_r_foot_m5			QTMMod_r_foot_m2			QTMMod_r_foot_toe			QTMMod_r_foot_m1			QTMMod_r_foot_med			QTMMod_r_foot_navi			QTMMod_head_l			QTMMod_head_r			QTMMod_head_front			
		X1	Y1	Z1	X2	Y2	Z2	X3	Y3	Z3	X4	Y4	Z4	X5	Y5	Z5	X6	Y6	Z6	X7	Y7	Z7	X8	Y8	Z8	X9	Y9	Z9	X10	Y10	Z10	X11	Y11	Z11	X12	Y12	Z12	X13	Y13	Z13	X14	Y14	Z14	X15	Y15	Z15	X16	Y16	Z16	X17	Y17	Z17	X18	Y18	Z18	X19	Y19	Z19	X20	Y20	Z20	X21	Y21	Z21	X22	Y22	Z22	X23	Y23	Z23	X24	Y24	Z24	X25	Y25	Z25	X26	Y26	Z26	X27	Y27	Z27	X28	Y28	Z28	X29	Y29	Z29	X30	Y30	Z30	X31	Y31	Z31	X32	Y32	Z32	X33	Y33	Z33	X34	Y34	Z34	X35	Y35	Z35	X36	Y36	Z36	X37	Y37	Z37	X38	Y38	Z38	X39	Y39	Z39	X40	Y40	Z40	X41	Y41	Z41	X42	Y42	Z42	X43	Y43	Z43	X44	Y44	Z44	X45	Y45	Z45	X46	Y46	Z46	X47	Y47	Z47	X48	Y48	Z48	X49	Y49	Z49	X50	Y50	Z50	X51	Y51	Z51	X52	Y52	Z52	X53	Y53	Z53	X54	Y54	Z54	X55	Y55	Z55	X56	Y56	Z56	X57	Y57	Z57	X58	Y58	Z58	X59	Y59	Z59	X60	Y60	Z60	X61	Y61	Z61	X62	Y62	Z62	X63	Y63	Z63	X64	Y64	Z64	X65	Y65	Z65	X66	Y66	Z66	X67	Y67	Z67	X68	Y68	Z68	X69	Y69	Z69	X70	Y70	Z70	X71	Y71	Z71	X72	Y72	Z72	X73	Y73	Z73	X74	Y74	Z74	X75	Y75	Z75	X76	Y76	Z76	X77	Y77	Z77	X78	Y78	Z78	X79	Y79	Z79	X80	Y80	Z80	X81	Y81	Z81	X82	Y82	Z82	X83	Y83	Z83	X84	Y84	Z84	X85	Y85	Z85	X86	Y86	Z86	X87	Y87	Z87	X88	Y88	Z88	X89	Y89	Z89	X90	Y90	Z90	X91	Y91	Z91	X92	Y92	Z92	X93	Y93	Z93	X94	Y94	Z94	X95	Y95	Z95	X96	Y96	Z96	X97	Y97	Z97	X98	Y98	Z98	X99	Y99	Z99	

944	3.772	2570.064697265625	1642.60791015625	-193.6557006835939	2637.044189453125	1549.919555664063	-278.7112121582033	2643.16162109375	1561.810913085938	-112.7733840942384	2547.034423828125	1534.217041015625	-113.3246917724611	2524.527587890625	1516.529174804688	-265.2098388671877	2588.636962890625	1365.639282226563	-352.602752685547	2589.107177734375	1350.0234375	-34.74512481689469	2634.68408203125	1315.317749023438	-194.672561645508	2697.561767578125	1099.942504882813	-193.5730743408205	2728.181884765625	966.9138793945314	-187.343475341797	2522.938232421875	1400.40625	-190.8433227539064	2459.298828125	1191.813720703125	-206.6880645751955	2466.969482421875	1095.667846679688	-200.9969482421876	2626.42529296875	1306.275390625	-343.8624267578127	2513.971435546875	1340.843505859375	-355.8520812988283	2584.12939453125	1155.424072265625	-399.0310058593752	2481.635009765625	1179.8671875	-371.6152343750002	2524.4169921875	1049.916259765625	-449.9478759765627	2494.556884765625	1034.332763671875	-356.3768920898439	2517.069091796875	932.4324951171876	-390.4211730957033	2497.004638671875	951.9273071289064	-467.9851989746095	2524.147705078125	802.0596313476564	-437.5243530273439	2477.32568359375	819.2271728515626	-486.7839660644533	2496.78271484375	756.0979003906251	-490.2562866210939	2521.107421875	752.8636474609376	-438.0115966796877	2634.482177734375	1300.131469726563	-56.57351303100602	2516.573974609375	1312.238891601563	-32.15283966064469	2665.872314453125	1165.767211914063	-10.8409967422487	2565.56591796875	1132.164794921875	17.35877990722641	2690.859375	1047.539672851563	63.12009429931624	2649.458984375	1015.665405273438	-23.0441627502443	2731.4814453125	983.7615356445314	-12.33002662658708	2708.93994140625	973.7326660156251	70.49176788330061	2843.68212890625	879.6047973632815	5.917729377746408	2805.43701171875	836.6927490234377	46.02237319946272	2866.5576171875	811.0982666015627	42.49937057495099	2887.371337890625	845.594177246094	6.274639606475653	2679.24072265625	959.1344604492189	-303.1467895507814	2660.7392578125	960.1826782226564	-72.41551208496109	2554.586669921875	993.4289550781251	-31.48316383361832	2549.5595703125	1008.0595703125	-30.8920574188234	2461.900390625	1000.298034667969	-155.1834411621095	2462.974609375	993.7585449218751	-211.1193847656251	2472.750732421875	993.5901489257814	-261.322967529297	2597.0048828125	1010.10791015625	-362.2221069335939	2610.834228515625	959.8176269531251	-366.509246826172	2602.918212890625	918.6838989257814	-386.4973144531252	2746.643310546875	646.4708862304689	-351.1723022460939	2680.846435546875	615.5217285156251	-347.4831542968752	2728.521484375	530.6683349609376	-323.5359497070314	2790.810546875	566.9487915039065	-321.1502685546877	2822.30517578125	571.0310668945315	-254.134231567383	2760.200927734375	622.6412353515626	-190.5007781982424	2647.0810546875	555.6075439453126	-268.7737121582033	2802.801513671875	500.4473266601564	-298.0526123046877	2793.021728515625	498.9001464843752	-188.2834930419924	2853.68994140625	377.1905822753908	-312.740692138672	2784.21533203125	354.1138916015627	-324.659149169922	2808.029541015625	284.9410400390627	-313.8421020507814	2877.522705078125	306.7729492187502	-310.5340576171877	2862.14404296875	335.9558715820314	-197.5526275634767	2947.42724609375	112.0197830200197	-282.8450012207033	2943.764404296875	121.4611511230471	-196.101531982422	2904.003173828125	54.86505889892596	-243.6683197021486	3017.38671875	97.58993530273456	-281.944793701172	3078.3759765625	121.9688644409182	-281.3548278808595	3092.887451171875	163.0174713134768	-220.1668701171877	3132.593505859375	180.4297790527346	-236.830032348633	3064.925537109375	137.8985595703127	-187.3235473632814	3016.35986328125	107.9318618774416	-186.8870697021486	3004.022216796875	158.9422149658205	-238.0924530029299	2586.185546875	943.7202758789064	-11.64751815795914	2573.3046875	638.0676879882814	-43.02664566040055	2506.49072265625	663.4674682617189	-27.84888648986832	2475.2646484375	569.7659301757814	-58.03919982910171	2542.2197265625	549.0585937500001	-69.13184356689469	2551.996337890625	514.4647827148439	-141.0551605224611	2589.170654296875	605.6533813476564	-178.7566986083986	2437.584228515625	654.3593139648439	-128.6314392089845	2486.859130859375	483.1589965820314	-95.09101104736344	2491.3046875	477.6062927246095	-188.4722747802736	2449.568603515625	362.4347229003908	-87.48357391357438	2383.328369140625	392.1865539550783	-76.75925445556655	2354.105224609375	322.2919921875002	-79.98420715332045	2418.337158203125	292.7122802734377	-92.05264282226577	2440.9755859375	330.4487609863283	-191.2508544921876	2323.413818359375	92.50532531738295	-128.5536041259767	2331.648681640625	106.1495895385744	-213.0570373535158	2257.645751953125	72.16116333007827	-163.5696868896486	2385.54345703125	49.24587249755874	-130.7209625244142	2443.479736328125	32.47830581665054	-118.0677642822267	2470.083740234375	50.45552825927749	-193.5520629882814	2522.479736328125	45.40827941894547	-197.2561798095705	2458.94189453125	25.9901561737062	-233.7752075195314	2384.83251953125	53.28856658935562	-221.7745361328126	2398.752197265625	102.2063064575197	-175.996780395508	2580.785888671875	1533.224365234375	-271.9605102539064	2595.097900390625	1548.013916015625	-113.0490341186525	2640.10302734375	1555.865234375	-195.7422943115236	
945	3.776	2575.10791015625	1641.725952148438	-193.8790130615236	2642.0498046875	1549.041381835938	-278.9491271972658	2648.14306640625	1560.945922851563	-113.0325622558595	2551.83740234375	1533.1845703125	-113.6332855224611	2529.65283203125	1515.363647460938	-265.2813720703127	2593.54150390625	1364.656005859375	-352.8417358398439	2593.046875	1350.531127929688	-34.49572372436539	2639.27294921875	1314.896728515625	-195.642547607422	2702.3857421875	1099.066040039063	-193.953582763672	2733.169921875	965.9401855468751	-187.4880981445314	2527.888671875	1399.593383789063	-191.3275451660158	2460.554931640625	1190.577392578125	-204.5086212158205	2471.584228515625	1094.810180664063	-200.9754333496095	2631.176513671875	1305.411499023438	-344.0960693359377	2517.810302734375	1339.98974609375	-356.3997192382814	2589.050537109375	1154.4931640625	-399.1477661132814	2484.1572265625	1179.08935546875	-372.678436279297	2529.447021484375	1048.9267578125	-450.0292358398439	2499.73876953125	1033.335815429688	-356.3943786621095	2521.84521484375	931.3871459960939	-390.5427856445314	2501.936279296875	950.9871215820314	-468.0717163085939	2528.655517578125	801.0648803710939	-437.6355285644533	2482.017333984375	818.3191528320314	-487.1592407226564	2501.203125	755.1262817382814	-490.5075988769533	2525.36474609375	751.8298950195314	-438.1235961914064	2639.421142578125	1299.070190429688	-56.78141021728532	2521.8359375	1311.360229492188	-32.14863586425797	2670.61572265625	1165.610229492188	-10.59102535247819	2571.185302734375	1131.138305664063	17.25254058837875	2696.181884765625	1046.69677734375	62.66181182861312	2653.616943359375	1014.235717773438	-23.70017814636247	2736.6650390625	982.7637939453126	-12.84855461120622	2714.533203125	972.8421630859376	69.89786529540999	2849.233154296875	878.9095458984377	5.203966140746896	2811.082275390625	835.9505615234377	45.26445770263655	2872.230712890625	810.652770996094	41.55216217040998	2892.99951171875	845.0476074218752	5.489046096801581	2684.08740234375	958.3875122070314	-303.2646484375002	2665.639404296875	959.9595947265626	-72.52552795410172	2558.9013671875	991.2127075195314	-32.84487533569352	2554.568359375	1008.694763183594	-31.12186050415055	2466.781005859375	999.3532104492189	-155.4359130859376	2465.505615234375	992.2111816406251	-209.1624298095705	2475.83251953125	991.8838500976564	-258.1241149902345	2601.752197265625	1009.326843261719	-362.3651123046877	2615.686279296875	959.0568847656251	-366.5492248535158	2607.691162109375	917.8516235351564	-386.6150817871095	2752.5517578125	646.2106323242189	-350.8462829589845	2686.6669921875	614.9152832031251	-346.8946533203127	2734.606689453125	530.2582397460939	-323.1185302734377	2796.838623046875	566.7874145507815	-320.5069885253908	2827.805419921875	571.1892700195315	-253.4872131347658	2765.4453125	622.5971679687501	-190.2018127441408	2652.90478515625	555.2435913085939	-268.2974548339845	2808.581298828125	500.3255920410158	-297.5899047851564	2798.7294921875	498.7367248535158	-187.8331756591799	2859.082763671875	376.1404724121095	-311.9393615722658	2789.657470703125	353.5934448242189	-324.0521545410158	2813.12158203125	284.2767944335939	-313.2071838378908	2882.6044921875	305.7264404296877	-309.6264038085939	2867.29541015625	335.2837829589845	-196.7190856933595	2951.443603515625	110.8536529541017	-281.5202636718752	2947.10791015625	119.9849395751955	-195.3171691894533	2907.923095703125	53.86768341064471	-242.2669677734377	3021.40283203125	96.31016540527362	-280.8582763671877	3082.46875	120.4390182495119	-280.3241577148439	3097.146484375	161.7165222167971	-219.2201385498049	3136.8076171875	178.8223419189455	-235.9087829589846	3069.289794921875	136.5939788818361	-185.9989166259768	3020.54052734375	106.8225326538088	-185.7318572998049	3006.7978515625	157.2098693847658	-237.1530761718752	2590.068603515625	943.2416992187501	-11.96429061889664	2577.52099609375	637.1601562500001	-43.17642211914078	2510.77734375	662.6893920898439	-28.02565193176285	2479.6982421875	569.2909545898439	-58.09083938598648	2546.459716796875	548.3042602539064	-69.25640869140641	2556.05419921875	513.5721435546876	-141.0012664794924	2593.53564453125	604.7915039062501	-178.7994232177736	2441.87939453125	653.6748657226564	-129.1192626953126	2490.824462890625	482.4231872558595	-95.22077178955094	2495.223388671875	476.741180419922	-188.424270629883	2452.43212890625	361.3175048828127	-87.91061401367203	2386.60400390625	392.1790161132814	-76.75121307373061	2356.800048828125	322.5860900878908	-79.90453338623061	2420.710693359375	292.369842529297	-92.07717895507827	2440.990478515625	329.604217529297	-189.9839019775392	2323.965087890625	93.14185333251967	-128.3133239746095	2332.20556640625	106.675735473633	-212.9760131835939	2257.954345703125	73.00668334960952	-163.4141540527345	2385.792724609375	49.28466796875015	-130.6773071289064	2443.491455078125	32.43288421630874	-118.0458145141603	2470.191162109375	50.36526107788101	-193.485321044922	2522.598876953125	45.23183059692398	-197.2594451904298	2459.02734375	26.08053588867202	-234.097122192383	2384.988037109375	53.51612091064468	-221.6660766601564	2399.170166015625	102.3420791625978	-175.9448852539064	2585.851318359375	1532.202514648438	-272.1152343750002	2599.990234375	1547.065307617188	-113.3329238891603	2645.096435546875	1554.99365234375	-195.9908447265627	
946	3.78	2580.114501953125	1640.92822265625	-194.2046203613283	2647.086669921875	1548.161865234375	-279.1548767089845	2653.1904296875	1560.144653320313	-113.3406372070314	2556.8837890625	1532.380004882813	-113.9182586669923	2534.42822265625	1514.728149414063	-265.6030578613283	2598.353759765625	1363.881713867188	-353.0138244628908	2598.022216796875	1349.549438476563	-34.61320114135758	2646.430419921875	1314.712036132813	-194.9537353515627	2707.233642578125	1098.400634765625	-194.1915283203127	2738.12939453125	965.0371093750001	-187.6255493164064	2532.52978515625	1398.5078125	-190.9492187500001	2465.994873046875	1189.562255859375	-204.7839965820314	2476.65380859375	1093.929443359375	-201.2309417724611	2636.0810546875	1304.601684570313	-344.337860107422	2524.17138671875	1338.628662109375	-356.1716918945314	2594.012451171875	1153.618774414063	-399.342742919922	2489.02978515625	1177.691772460938	-372.9321899414064	2534.489990234375	1047.972900390625	-450.1669921875002	2504.824951171875	1032.372802734375	-356.4783325195314	2526.8564453125	930.5124511718751	-390.6409606933595	2506.8701171875	950.0231933593751	-468.2719116210939	2533.27734375	800.0921020507814	-437.852020263672	2486.72314453125	817.4426269531251	-487.4040832519533	2505.72900390625	754.3232421875001	-490.7728881835939	2529.644775390625	750.7777099609376	-438.211883544922	2643.7470703125	1297.628173828125	-55.56560134887712	2527.008056640625	1310.503662109375	-32.2051734924318	2675.726318359375	1164.690185546875	-11.0144004821779	2576.405517578125	1129.887817382813	16.82145118713363	2701.6357421875	1045.827270507813	62.36281204223616	2658.427490234375	1013.241638183594	-22.99138450622575	2742.2529296875	981.9412841796876	-13.40053939819353	2720.05712890625	972.0225219726564	69.38271331787092	2854.774169921875	878.2418212890627	4.460140228271309	2816.7109375	835.3506469726565	44.65019989013655	2877.914306640625	810.1090087890627	40.84079360961896	2898.585205078125	844.3801879882815	4.773164272308172	2689.032958984375	957.7835083007814	-303.4020996093752	2670.451171875	958.9052124023439	-72.63178253173845	2563.995849609375	991.3869628906251	-32.45448303222672	2559.130615234375	1007.557739257813	-31.27989196777359	2471.758544921875	998.1598510742189	-155.8950500488283	2473.081298828125	990.6296997070314	-209.9713745117189	2480.79638671875	991.2404174804689	-258.2569885253908	2606.613037109375	1008.595153808594	-362.5154724121095	2620.57958984375	958.3282470703126	-366.6575927734377	2612.87451171875	917.1715087890626	-386.7615051269533	2758.60986328125	645.9046630859376	-350.451629638672	2694.626220703125	613.8950805664064	-347.1660766601564	2740.850830078125	529.9707641601564	-322.7392578125002	2802.949951171875	566.7417602539065	-319.8111267089845	2833.433349609375	571.4539184570315	-252.7892456054689	2770.65625	622.5283203125001	-189.8662872314455	2659.472412109375	553.2948608398439	-269.2036743164064	2814.522705078125	500.1491699218752	-296.9053344726564	2804.5078125	498.5988769531252	-187.3241577148439	2864.452880859375	375.2259216308595	-311.1736145019533	2794.842041015625	352.8999633789064	-323.0906372070314	2817.9794921875	283.5244750976564	-312.0675048828127	2887.568115234375	304.7175903320314	-308.7294921875002	2872.336669921875	334.5304565429689	-195.8184204101564	2955.259765625	109.5677261352541	-280.3641662597658	2950.98193359375	118.8659820556642	-194.271697998047	2911.452392578125	52.74547576904315	-240.8010406494142	3025.10791015625	94.74795532226581	-279.6303710937502	3086.152587890625	118.6453781127932	-279.2628173828127	3101.107421875	160.0342559814455	-218.2406463623049	3140.80615234375	176.9999694824221	-235.2234344482424	3073.19482421875	135.0331420898439	-184.8875579833986	3024.350341796875	105.5031661987307	-184.5799255371096	3009.6904296875	155.3833465576174	-235.759231567383	2594.48291015625	942.6384887695314	-12.32334518432633	2582.08251953125	636.4134521484376	-43.3083114624025	2515.14599609375	661.1444702148439	-28.39928245544449	2483.9208984375	568.4175415039064	-58.27627182006851	2550.85302734375	547.5856323242189	-69.40086364746109	2560.269775390625	512.6832885742189	-141.048049926758	2597.989990234375	603.8501586914064	-178.9693298339845	2446.47705078125	653.1137695312501	-129.3360748291017	2494.9375	481.6192626953127	-95.37181091308609	2499.25439453125	475.4311828613283	-188.3370971679689	2455.577880859375	360.6440734863283	-88.04961395263688	2390.01611328125	392.0532836914064	-76.81824493408217	2359.241943359375	322.2944641113283	-79.90949249267592	2423.53125	292.0025329589845	-92.26121520996108	2443.1591796875	329.358612060547	-191.1800231933595	2324.50244140625	93.74942016601577	-128.0856933593751	2332.8388671875	107.3263549804689	-212.8708648681642	2258.304931640625	73.93891906738295	-163.2010650634767	2386.021728515625	49.31835937500015	-130.6038360595705	2443.514892578125	32.41595077514663	-118.0231018066408	2470.32861328125	50.26794052124038	-193.4322509765626	2522.671875	45.06029891967789	-197.2369079589845	2459.091064453125	26.12554168701187	-234.1548919677736	2385.112060546875	53.74596023559585	-221.5762329101564	2399.573974609375	102.4515304565431	-175.8589324951173	2590.75732421875	1531.445068359375	-272.3789672851564	2605.037109375	1546.262329101563	-113.6294479370119	2650.138427734375	1554.153198242188	-196.247756958008	
947	3.784	2585.109130859375	1640.115600585938	-194.4497833251955	2652.056884765625	1547.315063476563	-279.5706481933595	2658.22900390625	1559.347412109375	-113.6928939819338	2562.300537109375	1532.005737304688	-113.9531173706056	2539.389404296875	1513.922607421875	-265.9420776367189	2603.19580078125	1363.013549804688	-353.3988037109377	2602.72265625	1348.376586914063	-35.09360504150406	2649.2734375	1313.01611328125	-195.6673126220705	2712.543212890625	1097.754516601563	-194.3716278076174	2743.131591796875	964.1631469726564	-187.6971130371095	2537.579833984375	1397.884887695313	-190.9824829101564	2471.494384765625	1188.626708984375	-205.2290954589845	2481.685546875	1093.126220703125	-201.4912567138673	2640.793701171875	1303.9228515625	-344.6597290039064	2528.50341796875	1338.050903320313	-356.4033203125002	2599.1162109375	1152.698974609375	-399.486541748047	2494.349609375	1177.281860351563	-373.7303466796877	2539.676025390625	1047.043090820313	-450.1776123046877	2509.811279296875	1031.468383789063	-356.5857238769533	2531.778564453125	929.4544677734376	-390.8572692871095	2511.998779296875	949.1915283203126	-468.3635559082033	2537.858154296875	799.0775756835939	-438.0596618652345	2491.496826171875	816.6828613281251	-487.6521606445314	2510.207275390625	753.4041748046876	-491.0205383300783	2533.9736328125	749.8865356445314	-438.3773803710939	2649.184326171875	1297.515380859375	-57.44123458862321	2532.102294921875	1309.671875	-32.31779098510758	2680.77685546875	1163.83251953125	-11.437565803528	2581.47119140625	1128.508666992188	16.10541152954086	2706.986083984375	1045.19970703125	61.86313629150374	2663.824462890625	1012.291137695313	-23.49839401245134	2747.49169921875	981.0665893554689	-13.90746307373064	2725.5322265625	971.1729736328126	68.83716583251936	2860.2890625	877.5775146484377	3.607096433639351	2822.220703125	834.575866699219	44.10560989379866	2883.40283203125	809.4351806640627	40.23550415039045	2904.011474609375	843.7107543945315	4.100492000579656	2694.01025390625	957.0938720703126	-303.4801330566408	2676.37158203125	958.2528076171876	-73.18146514892595	2568.277587890625	988.3287963867189	-33.82096099853531	2564.73828125	1007.023986816406	-31.10889625549332	2476.6748046875	997.2718505859376	-156.0639648437501	2477.755859375	989.7895507812501	-209.9901428222658	2485.567626953125	990.1597900390626	-258.4285278320314	2612.329345703125	1008.170471191406	-362.8435058593752	2625.5986328125	957.7133178710939	-366.9095153808595	2617.852294921875	916.4513549804689	-386.8632202148439	2764.807373046875	645.8061523437501	-350.0617980957033	2700.921875	613.5350341796876	-346.9971618652345	2747.209716796875	529.7593994140626	-322.2880249023439	2809.1572265625	566.7124633789065	-319.1338500976564	2839.0458984375	571.7005004882815	-252.0257415771486	2775.92138671875	622.4772338867189	-189.4980926513674	2665.392822265625	552.6766967773439	-269.0223388671877	2820.529296875	499.9521789550783	-296.2202453613283	2810.27001953125	498.561004638672	-186.8489990234377	2869.73388671875	374.2293395996095	-310.3582763671877	2799.935546875	352.3529663085939	-322.3463439941408	2822.400634765625	283.0730285644533	-311.0448303222658	2892.405517578125	303.5187072753908	-307.7864990234377	2877.352294921875	333.7064208984377	-194.985565185547	2958.616943359375	108.1515960693361	-279.1343994140627	2954.823486328125	117.7129821777346	-193.0618133544924	2914.623046875	51.63398361206072	-239.510711669922	3028.437255859375	93.04279327392597	-278.4516906738283	3089.567138671875	116.7102279663088	-278.2484130859377	3104.73388671875	157.9934844970705	-217.3848266601564	3144.455078125	174.6781921386721	-234.3132934570314	3076.759765625	133.299758911133	-184.0396575927736	3027.77734375	103.8758392333986	-183.4919128417971	3014.47119140625	153.9165954589845	-235.0001678466799	2600.02197265625	941.6918334960939	-12.80135822296159	2586.628662109375	635.6258544921876	-43.45498657226578	2519.400634765625	660.0677490234376	-28.71351242065445	2488.982421875	568.3295288085939	-57.98368072509781	2555.338623046875	546.7809448242189	-69.66223907470719	2564.591796875	511.8885803222658	-141.1459960937502	2602.57568359375	603.0189208984376	-179.0946197509767	2450.260498046875	652.7449340820314	-129.8227691650392	2499.101806640625	480.9169921875002	-95.5568466186525	2503.392333984375	474.5416259765627	-188.1804809570314	2458.8876953125	360.0672607421877	-88.23265075683609	2393.6162109375	392.0863037109377	-76.79712677001967	2362.524658203125	323.0660705566408	-79.71826934814467	2426.148681640625	291.6188354492189	-92.33023071289077	2446.13134765625	329.1398010253908	-191.6117248535158	2325.1240234375	94.09434509277358	-127.8088378906251	2333.529541015625	107.9963684082033	-212.7955474853517	2258.6318359375	74.88352203369155	-162.9221038818361	2386.2373046875	49.36690521240249	-130.5158843994142	2443.484130859375	32.37514114379898	-117.9703063964845	2470.525390625	50.22282028198257	-193.4121093750001	2522.762939453125	44.89358139038102	-197.2225189208986	2459.066162109375	25.95814323425308	-234.1277160644533	2385.242431640625	53.99849700927749	-221.7804565429689	2399.82568359375	102.8604202270509	-175.9557495117189	2595.72314453125	1530.618896484375	-272.7563476562502	2610.2646484375	1545.676513671875	-113.8230056762697	2655.14306640625	1553.331176757813	-196.6317749023439	
